<svg width="940" height="647" viewBox="0 0 940 647" xmlns="http://www.w3.org/2000/svg" xmlns:xlink="http://www.w3.org/1999/xlink" style="overflow:visible">
                  <defs>
                    <linearGradient x1="100%" y1="0%" x2="0%" y2="100%" id="hero-illustration-a">
                      <stop stop-color="#333333" offset="0%"></stop>
                      <stop stop-color="#4e4e4e" offset="100%"></stop>
                    </linearGradient>
                    <linearGradient x1="89.764%" y1="16.809%" x2="11.987%" y2="82.178%" id="hero-illustration-b">
                      <stop stop-color="#707dce" offset="0%"></stop>
                      <stop stop-color="#697dce" offset="100%"></stop>
                    </linearGradient>
                    <linearGradient x1="100%" y1="23.096%" x2="4.439%" y2="96.586%" id="hero-illustration-c">
                      <stop stop-color="#333333" offset="0%"></stop>
                      <stop stop-color="#6d6d6d" offset="100%"></stop>
                    </linearGradient>
                    <filter x="-13%" y="-150%" width="126.1%" height="400%" filterUnits="objectBoundingBox" id="hero-illustration-d">
                      <feGaussianBlur stdDeviation="32" in="SourceGraphic"></feGaussianBlur>
                    </filter>
                    <linearGradient x1="0%" y1="100%" x2="46.694%" y2="42.915%" id="hero-illustration-f">
                      <stop stop-color="#EEF1FA" offset="0%"></stop>
                      <stop stop-color="#FFF" offset="100%"></stop>
                    </linearGradient>
                    <rect id="hero-illustration-e" width="800" height="450" rx="4"></rect>
                    <linearGradient x1="100%" y1="-12.816%" x2="0%" y2="-12.816%" id="hero-illustration-g">
                      <stop stop-color="#D2DAF0" stop-opacity="0" offset="0%"></stop>
                      <stop stop-color="#D2DAF0" offset="50.045%"></stop>
                      <stop stop-color="#D2DAF0" stop-opacity="0" offset="100%"></stop>
                    </linearGradient>
                    <linearGradient x1="116.514%" y1="-21.201%" x2="0%" y2="100%" id="hero-illustration-h">
                      <stop stop-color="#55EBD0" offset="0%"></stop>
                      <stop stop-color="#6c71d4" offset="100%"></stop>
                    </linearGradient>
                    <path id="hero-illustration-j" d="M0 0h308v288H0z"></path>
                    <filter x="-15.6%" y="-12.5%" width="139%" height="141.7%" filterUnits="objectBoundingBox" id="hero-illustration-i">
                      <feOffset dx="12" dy="24" in="SourceAlpha" result="shadowOffsetOuter1"></feOffset>
                      <feGaussianBlur stdDeviation="16" in="shadowOffsetOuter1" result="shadowBlurOuter1"></feGaussianBlur>
                      <feColorMatrix values="0 0 0 0 0.0666666667 0 0 0 0 0.062745098 0 0 0 0 0.243137255 0 0 0 0.08 0" in="shadowBlurOuter1"></feColorMatrix>
                    </filter>
                    <circle id="hero-illustration-k" cx="16" cy="16" r="16"></circle>
                    <linearGradient x1="50%" y1="0%" x2="50%" y2="100%" id="hero-illustration-m">
                      <stop stop-color="#C6FDF3" offset="0%"></stop>
                      <stop stop-color="#C6FDF3" stop-opacity="0" offset="100%"></stop>
                    </linearGradient>
                    <linearGradient x1="2.875%" y1="89.028%" x2="99.412%" y2="6.885%" id="hero-illustration-n">
                      <stop stop-color="#83F0DD" offset="0%"></stop>
                      <stop stop-color="#1ADAB7" offset="50.924%"></stop>
                      <stop stop-color="#55EBD0" offset="100%"></stop>
                    </linearGradient>
                    <linearGradient x1="50%" y1="1.569%" x2="50%" y2="97.315%" id="hero-illustration-o">
                      <stop stop-color="#FF97AA" offset="0%"></stop>
                      <stop stop-color="#FF6381" offset="100%"></stop>
                    </linearGradient>
                    <linearGradient x1="50%" y1="0%" x2="50%" y2="100%" id="hero-illustration-p">
                      <stop stop-color="#FCAC96" offset="0%"></stop>
                      <stop stop-color="#FC8464" offset="100%"></stop>
                    </linearGradient>
                    <circle id="hero-illustration-r" cx="28" cy="28" r="28"></circle>
                    <filter x="-85.7%" y="-64.3%" width="314.3%" height="314.3%" filterUnits="objectBoundingBox" id="hero-illustration-q">
                      <feOffset dx="12" dy="24" in="SourceAlpha" result="shadowOffsetOuter1"></feOffset>
                      <feGaussianBlur stdDeviation="16" in="shadowOffsetOuter1" result="shadowBlurOuter1"></feGaussianBlur>
                      <feColorMatrix values="0 0 0 0 0.0666666667 0 0 0 0 0.062745098 0 0 0 0 0.243137255 0 0 0 0.08 0" in="shadowBlurOuter1"></feColorMatrix>
                    </filter>
                    <circle id="hero-illustration-t" cx="36" cy="36" r="36"></circle>
                    <filter x="-66.7%" y="-50%" width="266.7%" height="266.7%" filterUnits="objectBoundingBox" id="hero-illustration-s">
                      <feOffset dx="12" dy="24" in="SourceAlpha" result="shadowOffsetOuter1"></feOffset>
                      <feGaussianBlur stdDeviation="16" in="shadowOffsetOuter1" result="shadowBlurOuter1"></feGaussianBlur>
                      <feColorMatrix values="0 0 0 0 0.0666666667 0 0 0 0 0.062745098 0 0 0 0 0.243137255 0 0 0 0.08 0" in="shadowBlurOuter1"></feColorMatrix>
                    </filter>
                    <circle id="hero-illustration-v" cx="28" cy="28" r="28"></circle>
                    <filter x="-85.7%" y="-64.3%" width="314.3%" height="314.3%" filterUnits="objectBoundingBox" id="hero-illustration-u">
                      <feOffset dx="12" dy="24" in="SourceAlpha" result="shadowOffsetOuter1"></feOffset>
                      <feGaussianBlur stdDeviation="16" in="shadowOffsetOuter1" result="shadowBlurOuter1"></feGaussianBlur>
                      <feColorMatrix values="0 0 0 0 0.0666666667 0 0 0 0 0.062745098 0 0 0 0 0.243137255 0 0 0 0.08 0" in="shadowBlurOuter1"></feColorMatrix>
                    </filter>
                    <circle id="hero-illustration-x" cx="24" cy="24" r="24"></circle>
                    <filter x="-100%" y="-75%" width="350%" height="350%" filterUnits="objectBoundingBox" id="hero-illustration-w">
                      <feOffset dx="12" dy="24" in="SourceAlpha" result="shadowOffsetOuter1"></feOffset>
                      <feGaussianBlur stdDeviation="16" in="shadowOffsetOuter1" result="shadowBlurOuter1"></feGaussianBlur>
                      <feColorMatrix values="0 0 0 0 0.0666666667 0 0 0 0 0.062745098 0 0 0 0 0.243137255 0 0 0 0.08 0" in="shadowBlurOuter1"></feColorMatrix>
                    </filter>
                  </defs>
                  <g fill="none" fill-rule="evenodd">
                    <path class="anime-element stroke-animation" d="M600,300 C600,465.685425 465.685425,600 300,600 C134.314575,600 1.3749042e-14,465.685425 3.60373576e-15,300 C-6.54157051e-15,134.314575 134.314575,-1.29473326e-14 300,-2.30926389e-14 C465.685425,-3.32379452e-14 600,134.314575 600,300 Z" fill="url(#hero-illustration-a)" stroke="#6c71d4" stroke-dasharray="1885.221435546875" stroke-dashoffset="1885.221435546875" style="stroke-dashoffset: 0px; stroke-width: 2px; stroke-opacity: 0; fill-opacity: 1;"></path>
                    <g transform="translate(435 518)">
                      <circle class="anime-element fadeup-animation" fill="url(#hero-illustration-b)" cx="106" cy="32" r="32" style="opacity: 1; transform: translateY(0px);"></circle>
                      <circle class="anime-element fadeup-animation" fill="url(#hero-illustration-c)" cx="12" cy="117" r="12" style="opacity: 1; transform: translateY(0px);"></circle>
                    </g>
                    <g class="anime-element fadeleft-animation" style="opacity: 1; transform: translateX(0px);">
                      <g transform="translate(103 75)">
                        <path fill-opacity=".24" fill="#11103E" filter="url(#hero-illustration-d)" d="M32 410h736v64H32z"></path>
                        <use fill="url(#hero-illustration-f)" xlink:href="#hero-illustration-e"></use>
                      </g>
                      <g transform="translate(123 87)">
                        <circle fill="#D2DAF0" cx="4" cy="4" r="4"></circle>
                        <circle fill="#D2DAF0" cx="20" cy="4" r="4"></circle>
                        <circle fill="#D2DAF0" cx="36" cy="4" r="4"></circle>
                        <path fill-opacity=".56" fill="#FFF" d="M736 2h24v4h-24z"></path>
                        <path fill="url(#hero-illustration-g)" d="M27 20h706v2H27z"></path>
                      </g>
                      <g transform="translate(396 157)">
                        <path fill="#FFF" d="M0 0h308v144H0z"></path>
                        <path fill="#EEF1FA" d="M28 119h252v1H28zM28 94h252v1H28zM28 69h252v1H28zM28 44h252v1H28z"></path>
                        <path stroke="url(#hero-illustration-h)" stroke-width="3" d="M26 119l49.19-38.316 14.615 19.035 16.36-19.035 31.306 4.272 33.079-23.54 34.86 38.303 15.625-50.412 16.356 12.109 16.472-12.11 15.075 21.443 16.976-21.442"></path>
                        <rect fill="#D2DAF0" x="28" y="20" width="24" height="4" rx="2"></rect>
                      </g>
                      <g>
                        <path fill="#FFF" d="M396 333h308v144H396z"></path>
                        <path fill="#EEF1FA" d="M424 452h252v1H424zM424 427h252v1H424zM424 402h252v1H424zM424 377h252v1H424z"></path>
                        <path fill="url(#hero-illustration-o)" d="M28 24h12v96H28z" transform="translate(396 333)"></path>
                        <path fill="url(#hero-illustration-p)" d="M52 67h12v53H52z" transform="translate(396 333)"></path>
                        <path fill="url(#hero-illustration-o)" d="M76 24h12v96H76z" transform="translate(396 333)"></path>
                        <path fill="url(#hero-illustration-p)" d="M100 82h12v38h-12z" transform="translate(396 333)"></path>
                        <path fill="url(#hero-illustration-o)" d="M124 45h12v75h-12z" transform="translate(396 333)"></path>
                        <path fill="url(#hero-illustration-p)" d="M148 67h12v53h-12z" transform="translate(396 333)"></path>
                        <path fill="url(#hero-illustration-o)" d="M172 82h12v38h-12z" transform="translate(396 333)"></path>
                        <path fill="url(#hero-illustration-p)" d="M196 45h12v75h-12z" transform="translate(396 333)"></path>
                        <path fill="url(#hero-illustration-o)" d="M220 67h12v53h-12z" transform="translate(396 333)"></path>
                        <path fill="url(#hero-illustration-p)" d="M244 82h12v38h-12z" transform="translate(396 333)"></path>
                        <path fill="url(#hero-illustration-o)" d="M268 45h12v75h-12z" transform="translate(396 333)"></path>
                      </g>
                    </g>
                    <g class="anime-element fadeleft-animation" style="opacity: 1; transform: translateX(0px);">
                      <g transform="translate(56 157)">
                        <use fill="#000" filter="url(#hero-illustration-i)" xlink:href="#hero-illustration-j"></use>
                        <use fill="#FFF" xlink:href="#hero-illustration-j"></use>
                        <path fill="#EEF1FA" d="M0 191h308v1H0zM28 44h252v1H28z"></path>
                        <rect fill="#D2DAF0" x="28" y="20" width="24" height="4" rx="2"></rect>
                        <rect fill="#ABABC9" x="28" y="216" width="64" height="4" rx="2"></rect>
                        <rect fill="#D2DAF0" x="256" y="216" width="24" height="4" rx="2"></rect>
                        <rect fill="#D2DAF0" x="64" y="20" width="24" height="4" rx="2"></rect>
                        <path d="M308 89.82v101.063H0v-33.728l3.038-3.799 10.783-7.894 8.687-2.646h9.246l21.198 10.54 9.852 3.251 6.608-3.25 8.644-12.005 6.87-6.388 7.892-1.512 10.906 6.066 13.895 15.802 11.188 5.944h5.692l7.314-3.28 7.19-9.37 5.879-13.65 10.774-21.657 8.34-14.026 9.243-12.336 9.594-7.043 15.407-3.881 6.362 1.497 14.939 7.765 10.531 8.166 13.17 12.338 12.362 7.52 12.756 3.746 8.366-1.542 8.96-5.366 10.183-15.377L308 89.82z" fill="url(#hero-illustration-m)"></path>
                        <path d="M308 84.066v8.885c-13.215 32.373-36.292 33.308-68.007 2.699-18.456-17.814-33.74-21.583-47.058-13.978-10.675 6.097-19.593 18.713-29.342 38.963-2.594 5.388-10.386 22.73-11.136 24.336-11.298 24.181-27.067 24.181-45.624.363-12.17-13.657-21.486-13.657-29.221-.248-3.596 6.232-6.872 9.923-10.352 11.627-3.677 1.8-7.4 1.412-12.305-.82-2.416-1.098-12.51-6.8-14.82-7.981a101.498 101.498 0 0 0-4.586-2.208c-11.912-5.359-23.695-.926-35.549 13.65v-4.62c11.94-13.38 24.255-17.4 36.78-11.766 1.571.707 3.13 1.46 4.72 2.273 2.416 1.235 12.425 6.889 14.697 7.922 4.167 1.895 7.013 2.192 9.744.855 2.836-1.388 5.748-4.67 9.072-10.432 8.843-15.326 20.622-15.326 34.123-.172 17.344 22.257 30.338 22.257 40.603.287.734-1.572 8.536-18.936 11.151-24.368 9.998-20.768 19.193-33.776 30.557-40.266 14.618-8.348 31.298-4.234 50.63 14.424 32.601 31.465 54.068 28.367 65.923-9.425z" fill="url(#hero-illustration-n)" fill-rule="nonzero"></path>
                      </g>
                    </g>
                    <g>
                      <g class="anime-element fadeleft-animation" style="opacity: 1; transform: translateX(0px);">
                        <g transform="translate(28 221)">
                          <use fill="#000" filter="url(#hero-illustration-u)" xlink:href="#hero-illustration-v"></use>
                          <use fill="#FFF" xlink:href="#hero-illustration-v"></use>
                        </g>
                        <text font-family="AppleColorEmoji, Apple Color Emoji" font-size="19" fill="#11103E" transform="translate(28 221)">
                          <tspan x="17" y="36"></tspan>
                        </text>
                      </g>
                      <g class="anime-element fadeleft-animation" style="opacity: 1; transform: translateX(0px);">
                        <g transform="translate(325 257)">
                          <use fill="#000" filter="url(#hero-illustration-w)" xlink:href="#hero-illustration-x"></use>
                          <use fill="#FFF" xlink:href="#hero-illustration-x"></use>
                        </g>
                        <text font-family="AppleColorEmoji, Apple Color Emoji" font-size="16" fill="#11103E" transform="translate(325 257)">
                          <tspan x="13" y="31"></tspan>
                        </text>
                      </g>
                    </g>
                  </g>
                </svg>