<svg xmlns="http://www.w3.org/2000/svg" viewBox="0 0 512.002 512.002"><path d="M512.001 255.969a15.002 15.002 0 0 0-7.129-12.737l-52.034-32.076 52.089-32.421a15 15 0 0 0 .038-25.446l-241-151a15 15 0 0 0-15.929 0l-241 151a14.998 14.998 0 0 0 .038 25.446l51.732 32.198-51.755 32.349a15 15 0 0 0 .024 25.455l51.732 32.198-51.756 32.347a15.002 15.002 0 0 0-.014 25.431l241 151a14.989 14.989 0 0 0 7.964 2.289c2.764 0 5.529-.763 7.964-2.289l241-151a15 15 0 0 0-.093-25.48l-52.034-32.076 52.089-32.421a15 15 0 0 0 7.074-12.767zM43.32 165.96L256.001 32.703 468.682 165.96 256.001 298.334 43.32 165.96zm425.264 180.146L256.001 479.301 43.278 346.018l43.889-27.431 160.908 100.15a14.987 14.987 0 0 0 7.926 2.265c2.75 0 5.5-.755 7.926-2.265l160.464-99.874 44.193 27.243zm-212.583 42.228L43.345 255.976l43.822-27.389 160.908 100.15a14.987 14.987 0 0 0 7.926 2.265c2.75 0 5.5-.755 7.926-2.265l160.464-99.874 44.125 27.2-212.515 132.271z"/></svg>